<mxfile host="app.diagrams.net" modified="2023-07-09T08:26:12.680Z" agent="Mozilla/5.0 (Macintosh; Intel Mac OS X 10_15_7) AppleWebKit/537.36 (KHTML, like Gecko) Chrome/114.0.0.0 Safari/537.36" etag="I2a1aDw3dcZghq1g5RzF" version="21.1.5" type="device" pages="2">
  <diagram name="langchain-simple" id="nkMFHP4ZqGwkJR3qHzmF">
    <mxGraphModel dx="1570" dy="969" grid="1" gridSize="10" guides="1" tooltips="1" connect="1" arrows="1" fold="1" page="1" pageScale="1" pageWidth="1169" pageHeight="827" math="0" shadow="0">
      <root>
        <mxCell id="0" />
        <mxCell id="1" parent="0" />
        <mxCell id="W7duFkiaOYKUwtdXiIov-1" value="restaurant lambda" style="sketch=0;points=[[0,0,0],[0.25,0,0],[0.5,0,0],[0.75,0,0],[1,0,0],[0,1,0],[0.25,1,0],[0.5,1,0],[0.75,1,0],[1,1,0],[0,0.25,0],[0,0.5,0],[0,0.75,0],[1,0.25,0],[1,0.5,0],[1,0.75,0]];outlineConnect=0;fontColor=#232F3E;gradientColor=#F78E04;gradientDirection=north;fillColor=#D05C17;strokeColor=#ffffff;dashed=0;verticalLabelPosition=bottom;verticalAlign=top;align=center;html=1;fontSize=12;fontStyle=0;aspect=fixed;shape=mxgraph.aws4.resourceIcon;resIcon=mxgraph.aws4.lambda;" vertex="1" parent="1">
          <mxGeometry x="320" y="80" width="78" height="78" as="geometry" />
        </mxCell>
        <mxCell id="W7duFkiaOYKUwtdXiIov-5" value="&lt;span style=&quot;color: rgb(0, 0, 0); font-family: Helvetica; font-size: 11px; font-style: normal; font-variant-ligatures: normal; font-variant-caps: normal; font-weight: 400; letter-spacing: normal; orphans: 2; text-align: center; text-indent: 0px; text-transform: none; widows: 2; word-spacing: 0px; -webkit-text-stroke-width: 0px; background-color: rgb(255, 255, 255); text-decoration-thickness: initial; text-decoration-style: initial; text-decoration-color: initial; float: none; display: inline !important;&quot;&gt;POST {&quot;cuisine&quot;: &#39;Italien&quot;}&lt;/span&gt;" style="edgeStyle=orthogonalEdgeStyle;rounded=0;orthogonalLoop=1;jettySize=auto;html=1;entryX=0;entryY=0.5;entryDx=0;entryDy=0;entryPerimeter=0;" edge="1" parent="1" source="W7duFkiaOYKUwtdXiIov-2" target="W7duFkiaOYKUwtdXiIov-1">
          <mxGeometry relative="1" as="geometry" />
        </mxCell>
        <mxCell id="W7duFkiaOYKUwtdXiIov-6" value="POST {&quot;cuisine&quot;: &#39;Italien&quot;, &quot;user&quot;:&quot;martin&quot;}" style="edgeStyle=orthogonalEdgeStyle;rounded=0;orthogonalLoop=1;jettySize=auto;html=1;entryX=0;entryY=0.5;entryDx=0;entryDy=0;entryPerimeter=0;" edge="1" parent="1" source="W7duFkiaOYKUwtdXiIov-2" target="W7duFkiaOYKUwtdXiIov-3">
          <mxGeometry relative="1" as="geometry" />
        </mxCell>
        <mxCell id="W7duFkiaOYKUwtdXiIov-2" value="User" style="sketch=0;outlineConnect=0;fontColor=#232F3E;gradientColor=none;strokeColor=#232F3E;fillColor=#ffffff;dashed=0;verticalLabelPosition=bottom;verticalAlign=top;align=center;html=1;fontSize=12;fontStyle=0;aspect=fixed;shape=mxgraph.aws4.resourceIcon;resIcon=mxgraph.aws4.user;" vertex="1" parent="1">
          <mxGeometry x="40" y="190" width="62" height="62" as="geometry" />
        </mxCell>
        <mxCell id="W7duFkiaOYKUwtdXiIov-7" value="" style="edgeStyle=orthogonalEdgeStyle;rounded=0;orthogonalLoop=1;jettySize=auto;html=1;" edge="1" parent="1" source="W7duFkiaOYKUwtdXiIov-3" target="W7duFkiaOYKUwtdXiIov-4">
          <mxGeometry relative="1" as="geometry" />
        </mxCell>
        <mxCell id="W7duFkiaOYKUwtdXiIov-3" value="restaurant memory&lt;br&gt;lambda" style="sketch=0;points=[[0,0,0],[0.25,0,0],[0.5,0,0],[0.75,0,0],[1,0,0],[0,1,0],[0.25,1,0],[0.5,1,0],[0.75,1,0],[1,1,0],[0,0.25,0],[0,0.5,0],[0,0.75,0],[1,0.25,0],[1,0.5,0],[1,0.75,0]];outlineConnect=0;fontColor=#232F3E;gradientColor=#F78E04;gradientDirection=north;fillColor=#D05C17;strokeColor=#ffffff;dashed=0;verticalLabelPosition=bottom;verticalAlign=top;align=center;html=1;fontSize=12;fontStyle=0;aspect=fixed;shape=mxgraph.aws4.resourceIcon;resIcon=mxgraph.aws4.lambda;" vertex="1" parent="1">
          <mxGeometry x="320" y="280" width="78" height="78" as="geometry" />
        </mxCell>
        <mxCell id="W7duFkiaOYKUwtdXiIov-4" value="DynamoDB Memory" style="sketch=0;points=[[0,0,0],[0.25,0,0],[0.5,0,0],[0.75,0,0],[1,0,0],[0,1,0],[0.25,1,0],[0.5,1,0],[0.75,1,0],[1,1,0],[0,0.25,0],[0,0.5,0],[0,0.75,0],[1,0.25,0],[1,0.5,0],[1,0.75,0]];outlineConnect=0;fontColor=#232F3E;gradientColor=#4D72F3;gradientDirection=north;fillColor=#3334B9;strokeColor=#ffffff;dashed=0;verticalLabelPosition=bottom;verticalAlign=top;align=center;html=1;fontSize=12;fontStyle=0;aspect=fixed;shape=mxgraph.aws4.resourceIcon;resIcon=mxgraph.aws4.dynamodb;" vertex="1" parent="1">
          <mxGeometry x="480" y="280" width="78" height="78" as="geometry" />
        </mxCell>
      </root>
    </mxGraphModel>
  </diagram>
  <diagram name="langchain-prod" id="uZ229xjMGQ55FzX5QGjW">
    <mxGraphModel dx="1570" dy="969" grid="1" gridSize="10" guides="1" tooltips="1" connect="1" arrows="1" fold="1" page="1" pageScale="1" pageWidth="1169" pageHeight="827" math="0" shadow="0">
      <root>
        <mxCell id="DGvfoY1x9EAJnKH2iNb3-0" />
        <mxCell id="DGvfoY1x9EAJnKH2iNb3-1" parent="DGvfoY1x9EAJnKH2iNb3-0" />
        <mxCell id="DGvfoY1x9EAJnKH2iNb3-2" value="restaurant lambda" style="sketch=0;points=[[0,0,0],[0.25,0,0],[0.5,0,0],[0.75,0,0],[1,0,0],[0,1,0],[0.25,1,0],[0.5,1,0],[0.75,1,0],[1,1,0],[0,0.25,0],[0,0.5,0],[0,0.75,0],[1,0.25,0],[1,0.5,0],[1,0.75,0]];outlineConnect=0;fontColor=#232F3E;gradientColor=#F78E04;gradientDirection=north;fillColor=#D05C17;strokeColor=#ffffff;dashed=0;verticalLabelPosition=bottom;verticalAlign=top;align=center;html=1;fontSize=12;fontStyle=0;aspect=fixed;shape=mxgraph.aws4.resourceIcon;resIcon=mxgraph.aws4.lambda;" vertex="1" parent="DGvfoY1x9EAJnKH2iNb3-1">
          <mxGeometry x="482" y="40" width="78" height="78" as="geometry" />
        </mxCell>
        <mxCell id="DGvfoY1x9EAJnKH2iNb3-3" value="" style="edgeStyle=orthogonalEdgeStyle;rounded=0;orthogonalLoop=1;jettySize=auto;html=1;entryX=0;entryY=0.5;entryDx=0;entryDy=0;entryPerimeter=0;exitX=1;exitY=0.25;exitDx=0;exitDy=0;exitPerimeter=0;" edge="1" parent="DGvfoY1x9EAJnKH2iNb3-1" source="--imoEwvLTqHlbu-GV11-0" target="DGvfoY1x9EAJnKH2iNb3-2">
          <mxGeometry x="-0.0014" relative="1" as="geometry">
            <mxPoint as="offset" />
          </mxGeometry>
        </mxCell>
        <mxCell id="DGvfoY1x9EAJnKH2iNb3-4" value="" style="edgeStyle=orthogonalEdgeStyle;rounded=0;orthogonalLoop=1;jettySize=auto;html=1;entryX=0;entryY=0.5;entryDx=0;entryDy=0;entryPerimeter=0;exitX=1;exitY=0.5;exitDx=0;exitDy=0;exitPerimeter=0;" edge="1" parent="DGvfoY1x9EAJnKH2iNb3-1" source="--imoEwvLTqHlbu-GV11-0" target="DGvfoY1x9EAJnKH2iNb3-7">
          <mxGeometry relative="1" as="geometry" />
        </mxCell>
        <mxCell id="--imoEwvLTqHlbu-GV11-1" value="" style="edgeStyle=orthogonalEdgeStyle;rounded=0;orthogonalLoop=1;jettySize=auto;html=1;" edge="1" parent="DGvfoY1x9EAJnKH2iNb3-1" source="DGvfoY1x9EAJnKH2iNb3-5" target="--imoEwvLTqHlbu-GV11-0">
          <mxGeometry relative="1" as="geometry" />
        </mxCell>
        <mxCell id="DGvfoY1x9EAJnKH2iNb3-5" value="User" style="sketch=0;outlineConnect=0;fontColor=#232F3E;gradientColor=none;strokeColor=#232F3E;fillColor=#ffffff;dashed=0;verticalLabelPosition=bottom;verticalAlign=top;align=center;html=1;fontSize=12;fontStyle=0;aspect=fixed;shape=mxgraph.aws4.resourceIcon;resIcon=mxgraph.aws4.user;" vertex="1" parent="DGvfoY1x9EAJnKH2iNb3-1">
          <mxGeometry x="30" y="126" width="62" height="62" as="geometry" />
        </mxCell>
        <mxCell id="DGvfoY1x9EAJnKH2iNb3-6" value="" style="edgeStyle=orthogonalEdgeStyle;rounded=0;orthogonalLoop=1;jettySize=auto;html=1;" edge="1" parent="DGvfoY1x9EAJnKH2iNb3-1" source="DGvfoY1x9EAJnKH2iNb3-7" target="DGvfoY1x9EAJnKH2iNb3-8">
          <mxGeometry relative="1" as="geometry" />
        </mxCell>
        <mxCell id="DGvfoY1x9EAJnKH2iNb3-7" value="restaurant memory&lt;br&gt;lambda" style="sketch=0;points=[[0,0,0],[0.25,0,0],[0.5,0,0],[0.75,0,0],[1,0,0],[0,1,0],[0.25,1,0],[0.5,1,0],[0.75,1,0],[1,1,0],[0,0.25,0],[0,0.5,0],[0,0.75,0],[1,0.25,0],[1,0.5,0],[1,0.75,0]];outlineConnect=0;fontColor=#232F3E;gradientColor=#F78E04;gradientDirection=north;fillColor=#D05C17;strokeColor=#ffffff;dashed=0;verticalLabelPosition=bottom;verticalAlign=top;align=center;html=1;fontSize=12;fontStyle=0;aspect=fixed;shape=mxgraph.aws4.resourceIcon;resIcon=mxgraph.aws4.lambda;" vertex="1" parent="DGvfoY1x9EAJnKH2iNb3-1">
          <mxGeometry x="482" y="164" width="78" height="78" as="geometry" />
        </mxCell>
        <mxCell id="DGvfoY1x9EAJnKH2iNb3-8" value="DynamoDB Memory" style="sketch=0;points=[[0,0,0],[0.25,0,0],[0.5,0,0],[0.75,0,0],[1,0,0],[0,1,0],[0.25,1,0],[0.5,1,0],[0.75,1,0],[1,1,0],[0,0.25,0],[0,0.5,0],[0,0.75,0],[1,0.25,0],[1,0.5,0],[1,0.75,0]];outlineConnect=0;fontColor=#232F3E;gradientColor=#4D72F3;gradientDirection=north;fillColor=#3334B9;strokeColor=#ffffff;dashed=0;verticalLabelPosition=bottom;verticalAlign=top;align=center;html=1;fontSize=12;fontStyle=0;aspect=fixed;shape=mxgraph.aws4.resourceIcon;resIcon=mxgraph.aws4.dynamodb;" vertex="1" parent="DGvfoY1x9EAJnKH2iNb3-1">
          <mxGeometry x="680" y="164" width="78" height="78" as="geometry" />
        </mxCell>
        <mxCell id="--imoEwvLTqHlbu-GV11-0" value="AWS Api Gateway&lt;br&gt;/restaurant&amp;nbsp;POST {&quot;cuisine&quot;: &#39;Italien&quot;}&lt;br&gt;/restaurant-memory&amp;nbsp;POST {&quot;cuisine&quot;: &#39;Italien&quot;, &quot;user&quot;:&quot;martin&quot;}" style="sketch=0;points=[[0,0,0],[0.25,0,0],[0.5,0,0],[0.75,0,0],[1,0,0],[0,1,0],[0.25,1,0],[0.5,1,0],[0.75,1,0],[1,1,0],[0,0.25,0],[0,0.5,0],[0,0.75,0],[1,0.25,0],[1,0.5,0],[1,0.75,0]];outlineConnect=0;fontColor=#232F3E;gradientColor=#945DF2;gradientDirection=north;fillColor=#5A30B5;strokeColor=#ffffff;dashed=0;verticalLabelPosition=bottom;verticalAlign=top;align=center;html=1;fontSize=12;fontStyle=0;aspect=fixed;shape=mxgraph.aws4.resourceIcon;resIcon=mxgraph.aws4.api_gateway;" vertex="1" parent="DGvfoY1x9EAJnKH2iNb3-1">
          <mxGeometry x="240" y="118" width="78" height="78" as="geometry" />
        </mxCell>
      </root>
    </mxGraphModel>
  </diagram>
</mxfile>
